<?xml version="1.0" encoding="UTF-8"?>
<svg id="Layer_1" data-name="Layer 1" xmlns="http://www.w3.org/2000/svg" version="1.1" viewBox="0 0 141.4 135">
  <defs>
    <style>
      .cls-1, .cls-2 {
        fill: #000;
        stroke-width: 0px;
      }

      .cls-2 {
        display: none;
      }
    </style>
  </defs>
  <path class="cls-2" d="M62.1,17c16.9.8,29.5,8.5,36.7,24,4.5,9.6,4.7,19.7,1.2,29.7-.9,2.7-2.3,5.1-3.6,7.7-.4.8-.3,1.3.3,1.9l20.7,20.7c1.6,1.6,3.1,3.1,4.6,4.7,2.5,2.6,3.1,6.1,1.6,9.5-1.3,3-4.7,5-8.1,4.7-2-.2-3.8-.9-5.2-2.4l-15.6-15.6-10-10c-.5-.5-.9-.5-1.6,0-4.2,2.6-8.7,4.3-13.5,5.3-5.3,1-10.6,1-15.9,0-8.7-1.9-16.1-6.1-22-12.8-8.8-10.2-11.9-22.1-9.1-35.2,2.9-13.6,11.1-23,23.8-28.6,4.9-2.2,10.2-3.2,15.7-3.2v-.2ZM91.9,56.9c-.2-16.6-13.8-29.8-30.4-29.6-16.5.2-29.8,13.8-29.6,30.4.2,16.5,13.9,29.9,30.3,29.7,16.6-.2,29.9-13.9,29.6-30.5h.1Z"/>
  <path class="cls-2" d="M62,52.4h16.4c2.2,0,4,1.4,4.7,3.4.6,1.8,0,4-1.5,5.3-1.1.9-2.4,1.3-3.8,1.3h-30.8c-1.2,0-2.5-.2-3.6-.6-2.1-.8-3.1-3.1-2.7-5.3.4-2.1,2.2-3.8,4.4-4,2,0,3.9,0,5.9,0h11Z"/>
  <g>
    <path class="cls-1" d="M21.9,57c.4-14.6,6.6-26.1,18.8-34,8.8-5.7,18.6-7.5,28.8-5.5,13.6,2.6,23.4,10.4,29.3,22.8,3.8,8,4.6,16.4,2.9,25.1-.9,4.5-2.6,8.8-5.1,12.7-.5.8-.4,1.2.2,1.8,8.5,8.5,17,16.9,25.4,25.4,3.3,3.3,3.2,8.5-.1,11.9-3.1,3.1-8.4,3.2-11.6,0-6.1-6-12.2-12.1-18.3-18.2-2.4-2.4-4.9-4.8-7.3-7.3-.6-.6-1.1-.6-1.8-.2-11.2,6.6-23,7.8-35.1,3.3-11.3-4.2-19.1-12.2-23.6-23.4-1.8-4.6-2.6-9.4-2.6-14.3ZM92.2,57.2c0-16.7-13.4-30.1-30.2-30.1-16.1,0-29.8,13.6-29.8,29.7,0,16.8,13.3,30.3,30,30.3,16.4,0,29.9-13.4,30-29.9Z"/>
    <path class="cls-1" d="M67.2,68.4c0,1.6,0,3.3,0,4.9,0,2.8-2.3,5.1-5,5.1-2.7,0-4.9-2.2-4.9-5,0-3.3,0-6.6,0-10,0-1.1-.3-1.6-1.5-1.5-3.2,0-6.5,0-9.7,0-2.9,0-5.2-2.2-5.2-5,0-2.8,2.2-5,5.2-5,3.3,0,6.6,0,9.8,0,1.1,0,1.5-.4,1.5-1.5,0-3.3,0-6.6,0-10,0-2.5,1.3-4.2,3.9-4.9,1.6-.5,4,.4,5.1,2.1.5.9.9,2,.9,3,.1,3.2,0,6.5,0,9.7,0,1,.3,1.5,1.4,1.5,3.2,0,6.4,0,9.6,0,3.2,0,5.4,2.1,5.3,5,0,2.9-2.4,5-5.5,4.9-3.2,0-6.5,0-9.7,0-.8,0-1.2.3-1.1,1.1,0,1.8,0,3.5,0,5.3Z"/>
  </g>
</svg>