<?xml version="1.0" encoding="UTF-8"?>
<svg id="Layer_1" data-name="Layer 1" xmlns="http://www.w3.org/2000/svg" version="1.1" viewBox="0 0 141.4 135">
  <defs>
    <style>
      .cls-1 {
        fill: #000;
        stroke-width: 0px;
      }
    </style>
  </defs>
  <path class="cls-1" d="M62.1,17c16.9.8,29.5,8.5,36.7,24,4.5,9.6,4.7,19.7,1.2,29.7-.9,2.7-2.3,5.1-3.6,7.7-.4.8-.3,1.3.3,1.9,6.9,6.9,13.8,13.8,20.7,20.7,1.6,1.6,3.1,3.1,4.6,4.7,2.5,2.6,3.1,6.1,1.6,9.5-1.3,3-4.7,5-8.1,4.7-2-.2-3.8-.9-5.2-2.4-5.2-5.2-10.4-10.4-15.6-15.6-3.3-3.3-6.7-6.7-10-10-.5-.5-.9-.5-1.6-.1-4.2,2.6-8.7,4.3-13.5,5.3-5.3,1-10.6,1-15.9-.1-8.7-1.9-16.1-6.1-22-12.8-8.8-10.2-11.9-22.1-9.1-35.2,2.9-13.6,11.1-23,23.8-28.6,4.9-2.2,10.2-3.2,15.7-3.2ZM91.9,56.9c-.2-16.6-13.8-29.8-30.4-29.6-16.5.2-29.8,13.8-29.6,30.4.2,16.5,13.9,29.9,30.3,29.7,16.6-.2,29.9-13.9,29.6-30.5Z"/>
  <path class="cls-1" d="M62,52.4c5.5,0,10.9,0,16.4,0,2.2,0,4,1.4,4.7,3.4.6,1.8,0,4-1.5,5.3-1.1.9-2.4,1.3-3.8,1.3-10.3,0-20.5,0-30.8,0-1.2,0-2.5-.2-3.6-.6-2.1-.8-3.1-3.1-2.7-5.3.4-2.1,2.2-3.8,4.4-4,2-.1,3.9,0,5.9,0,3.7,0,7.4,0,11,0h0Z"/>
</svg>